<svg xmlns="http://www.w3.org/2000/svg" viewBox="0 0 200 200" fill="none" stroke="currentColor" stroke-width="1.5" stroke-linecap="round" stroke-linejoin="round">
  <!-- Top speech bubble -->
  <path d="M48,52 h80 a8,8 0 0,1 8,8 v32 a8,8 0 0,1 -8,8 h-56 l-16,14 v-14 h-8 a8,8 0 0,1 -8,-8 v-32 a8,8 0 0,1 8,-8 z" />
  <!-- Ellipsis dots in top bubble -->
  <circle cx="72" cy="76" r="2.5" fill="currentColor" opacity="0.4" />
  <circle cx="88" cy="76" r="2.5" fill="currentColor" opacity="0.4" />
  <circle cx="104" cy="76" r="2.5" fill="currentColor" opacity="0.4" />
  <!-- Bottom speech bubble -->
  <path d="M72,120 h80 a8,8 0 0,1 8,8 v32 a8,8 0 0,1 -8,8 h-8 v14 l-16,-14 h-56 a8,8 0 0,1 -8,-8 v-32 a8,8 0 0,1 8,-8 z" opacity="0.6" />
  <!-- Ellipsis dots in bottom bubble -->
  <circle cx="96" cy="144" r="2.5" fill="currentColor" opacity="0.25" />
  <circle cx="112" cy="144" r="2.5" fill="currentColor" opacity="0.25" />
  <circle cx="128" cy="144" r="2.5" fill="currentColor" opacity="0.25" />
</svg>
